<svg id="Capa_1" data-name="Capa 1" xmlns="http://www.w3.org/2000/svg" viewBox="0 0 562 437"><path d="M305.62,136.85a11.84,11.84,0,0,0,11.81-11.65c.05-5.93-5.4-11.42-11.5-11.59a11.58,11.58,0,0,0-11.79,11.57C294.09,132,298.88,136.84,305.62,136.85Z"/><path d="M235.6,193.6c-3.17-4.94-3.49-4.94-6.31.18q-23.78,43.32-47.49,86.66c-2.45,4.48-1.94,5.25,3.5,5.26q25.71,0,51.42,0c17.14,0,34.29,0,51.43,0,1.57,0,3.62.72,4.57-1,.83-1.54-.74-2.75-1.51-4Q263.43,237.12,235.6,193.6Z"/><path d="M320.15,227.68c-1.6-2.55-2.86-2.34-4.28.11-3.76,6.48-7.53,13-11.39,19.38-1.38,2.31-1.11,4.27.33,6.47,4.29,6.54,8.94,12.92,12.5,19.85,5,9.65,11.33,15.51,22.9,12.21,3.67,0,7.33-.06,11,0,3.48.09,4.82-1,2.69-4.33Q337,254.56,320.15,227.68Z"/><path d="M462.86,45H36V298.58A73.42,73.42,0,0,0,109.42,372H516V98.14A53.14,53.14,0,0,0,462.86,45ZM305.59,87.73c20.63,0,37.67,16.89,37.68,37.39s-17.47,38.17-37.85,38c-20.11-.12-37.71-17.9-37.56-38A38,38,0,0,1,305.59,87.73Zm84.52,218.92c-2.54,4.71-7.43,4.65-11.88,4.68-18.16.12-36.32.06-54.48.06H160.8a25.88,25.88,0,0,1-7.43-.6c-8-2.33-11.05-7.75-8.36-15.63,3.08-9,8.46-17,13-25.29q30.09-55.58,60.47-111c2.76-5.06,6.08-9.08,12.54-9.2s10.08,3.8,13.12,8.55q19.93,31.14,39.73,62.38c3.08,4.84,3.3,4.87,6.38-.15,5-8.24,9.95-16.57,15-24.79,2.37-3.84,4.79-7.71,9.73-8.75,6.84-1.44,11.54.39,15.38,6.5q30,47.83,59.91,95.73C394,295.07,393.18,300.94,390.11,306.65Z"/></svg>