<?xml version="1.0" encoding="utf-8"?>
<!-- Generator: Adobe Illustrator 25.4.1, SVG Export Plug-In . SVG Version: 6.00 Build 0)  -->
<svg version="1.1" id="Capa_1" xmlns="http://www.w3.org/2000/svg" xmlns:xlink="http://www.w3.org/1999/xlink" x="0px" y="0px"
	 viewBox="0 0 448 399" style="enable-background:new 0 0 448 399;" xml:space="preserve">
<style type="text/css">
	.st0{fill:#FCFDFE;}
	.st1{fill:none;}
	.st2{fill:none;stroke:#000000;stroke-width:20;stroke-linecap:square;stroke-miterlimit:10;}
	.st3{stroke:#000000;stroke-width:8;stroke-miterlimit:10;}
	.st4{fill:#010002;}
	.st5{fill:#FFFFFF;}
	.st6{fill:none;stroke:#000000;stroke-width:8;stroke-linejoin:round;}
	.st7{fill:none;stroke:#000000;stroke-width:8;stroke-linejoin:round;stroke-dasharray:12,12;}
	.st8{fill:none;stroke:#FFFFFF;stroke-width:18;stroke-miterlimit:10;}
	.st9{fill:#EFD8B9;}
	.st10{fill:none;stroke:#EFD8B9;stroke-width:18;stroke-miterlimit:10;}
	.st11{fill:none;stroke:#000000;stroke-width:18;stroke-miterlimit:10;}
	.st12{fill:none;stroke:#000000;stroke-width:22;stroke-miterlimit:10;}
	.st13{fill:none;stroke:#000000;stroke-width:40;stroke-miterlimit:10;}
	.st14{fill:none;stroke:#FFFFFF;stroke-width:22;stroke-miterlimit:10;}
	.st15{fill:none;stroke:#EFD8B9;stroke-width:22;stroke-miterlimit:10;}
	.st16{fill:none;stroke:#000000;stroke-width:15;stroke-miterlimit:10;}
</style>
<path class="st1" d="M279.66,280.06c6.39,9.76,13.32,19.27,18.63,29.61c2.72,5.29,5.72,9.81,9.29,13.17l-29.42-45.85
	C278.46,278,278.97,279.01,279.66,280.06z"/>
<path class="st1" d="M280.86,105.95c9.6,0.01,17.52-7.81,17.61-17.36c0.08-8.85-8.04-17.03-17.14-17.28
	c-9.57-0.26-17.51,7.53-17.57,17.24C263.68,98.69,270.81,105.95,280.86,105.95z"/>
<path class="st1" d="M328.11,325.43c0,0,0-0.01,0-0.01c-0.07-0.24-0.12-0.49-0.16-0.74c0-0.01,0-0.02,0-0.03c-0.07-0.5-0.07-1,0-1.5
	c0-0.02,0.01-0.05,0.01-0.07c0.03-0.24,0.08-0.47,0.14-0.7c0.01-0.03,0.02-0.05,0.02-0.08c0.13-0.46,0.33-0.9,0.58-1.3
	c0.02-0.03,0.04-0.06,0.06-0.09c0.13-0.19,0.26-0.37,0.42-0.54c0.02-0.03,0.05-0.05,0.07-0.07c0.32-0.34,0.71-0.64,1.15-0.87
	c0.04-0.02,0.07-0.04,0.11-0.06c0.22-0.11,0.45-0.2,0.7-0.27c0.04-0.01,0.08-0.02,0.11-0.03c0.26-0.07,0.53-0.13,0.82-0.16
	c0,0,0,0,0,0c0.76-0.6,1.76-0.99,3-0.99h15.5c-16.06-25.5-32.1-51.02-48.1-76.56c-2.38-3.8-4.26-3.49-6.38,0.17
	c-5.6,9.66-11.23,19.31-16.97,28.89c-1.4,2.34-1.66,4.43-1.01,6.56l29.42,45.85c5.76,5.43,13,7.84,22.89,5.54c0,0,0,0,0,0
	C329.25,327.77,328.46,326.68,328.11,325.43z"/>
<path class="st1" d="M176.47,190.57c-4.72-7.38-5.2-7.38-9.4,0.27c-23.64,43.04-47.23,86.11-70.8,129.19
	c-3.65,6.67-2.89,7.82,5.21,7.83c25.55,0.05,51.11,0.02,76.66,0.02c25.55,0,51.11,0.03,76.66-0.05c2.35-0.01,5.4,1.08,6.82-1.55
	c1.23-2.29-1.1-4.09-2.25-5.9C231.76,277.09,204.14,233.82,176.47,190.57z"/>
<path class="st1" d="M250.87,234.48l-15.76-24.56c4.42,6.96,8.85,13.92,13.28,20.88C249.39,232.38,250.19,233.59,250.87,234.48z"/>
<path class="st5" d="M298.29,309.67c-5.31-10.33-12.24-19.85-18.63-29.61c-0.69-1.05-1.2-2.06-1.5-3.07l-27.28-42.51
	c-0.69-0.89-1.48-2.1-2.48-3.68c-4.43-6.96-8.85-13.92-13.28-20.88c-15.29-24.05-30.58-48.11-45.95-72.12
	c-4.53-7.08-9.99-12.94-19.57-12.75c-9.63,0.19-14.58,6.18-18.68,13.71c-30.05,55.16-60.25,110.24-90.16,165.48
	c-6.72,12.42-14.74,24.23-19.34,37.7c-4,11.74,0.57,19.82,12.46,23.3c3.67,1.07,7.38,0.89,11.09,0.89
	c53.4,0.02,106.8,0.01,160.2,0.01c27.57,0,55.14,0,82.71,0c9.17,0,18.34,0.01,27.51,0.02l-27.81-43.34
	C304.01,319.47,301,314.95,298.29,309.67z M261.63,326.28c-1.42,2.63-4.47,1.55-6.82,1.55c-25.55,0.07-51.11,0.05-76.66,0.05
	c-25.55,0-51.11,0.04-76.66-0.02c-8.1-0.02-8.86-1.16-5.21-7.83c23.57-43.08,47.16-86.15,70.8-129.19c4.2-7.64,4.68-7.64,9.4-0.27
	c27.67,43.25,55.29,86.52,82.91,129.81C260.53,322.19,262.86,323.99,261.63,326.28z"/>
<path class="st5" d="M428.03,332.97c-29.81-47.54-59.5-95.17-89.32-142.7c-5.72-9.12-12.73-11.85-22.93-9.7
	c-7.36,1.55-10.97,7.33-14.49,13.05c-7.55,12.26-14.86,24.68-22.38,36.96c-2.24,3.66-3.47,5.51-4.67,5.61
	c-0.1,0.43-0.25,0.85-0.46,1.25l23.82,37.11c0.03-0.07,0.06-0.15,0.1-0.23c0.31-0.64,0.84-1.16,1.44-1.56
	c0.22-0.76,0.56-1.53,1.04-2.33c5.74-9.58,11.37-19.23,16.97-28.89c2.12-3.66,4-3.97,6.38-0.17c16.73,26.72,33.52,53.4,50.32,80.08
	c2.59,4.12,1.73,5.9-1.49,6.35c-0.78,0.67-1.82,1.09-3.14,1.09h-0.96c0,0,0,0,0,0H348.8c-1.28,0.19-2.51,0.31-3.7,0.34
	c-0.66,0.38-1.43,0.62-2.31,0.62h-9.73l23.32,36.34c17.9,0.01,35.81,0.02,53.71-0.1c6.64-0.04,13.94,0.04,17.71-6.98
	C432.4,350.58,433.58,341.83,428.03,332.97z"/>
<path class="st5" d="M280.57,145.19c30.38,0.18,56.43-26.01,56.42-56.72c-0.01-30.56-25.41-55.76-56.18-55.74
	c-30.6,0.02-56.02,25.28-56.25,55.87C224.34,118.5,250.58,145.01,280.57,145.19z M281.32,71.31c9.1,0.25,17.22,8.43,17.14,17.28
	c-0.08,9.55-8.01,17.37-17.61,17.36c-10.05-0.01-17.18-7.26-17.11-17.4C263.81,78.85,271.75,71.06,281.32,71.31z"/>
</svg>
