<?xml version="1.0" encoding="utf-8"?>
<!-- Generator: Adobe Illustrator 25.4.1, SVG Export Plug-In . SVG Version: 6.00 Build 0)  -->
<svg version="1.1" id="Capa_1" xmlns="http://www.w3.org/2000/svg" xmlns:xlink="http://www.w3.org/1999/xlink" x="0px" y="0px"
	 viewBox="0 0 446 399" style="enable-background:new 0 0 446 399;" xml:space="preserve">
<style type="text/css">
	.st0{fill:#FCFDFE;}
	.st1{fill:none;}
	.st2{fill:none;stroke:#000000;stroke-width:20;stroke-linecap:square;stroke-miterlimit:10;}
	.st3{stroke:#000000;stroke-width:8;stroke-miterlimit:10;}
	.st4{fill:#010002;}
	.st5{fill:#FFFFFF;}
	.st6{fill:none;stroke:#000000;stroke-width:8;stroke-linejoin:round;}
	.st7{fill:none;stroke:#000000;stroke-width:8;stroke-linejoin:round;stroke-dasharray:12,12;}
	.st8{fill:none;stroke:#FFFFFF;stroke-width:18;stroke-miterlimit:10;}
	.st9{fill:#EFD8B9;}
	.st10{fill:none;stroke:#EFD8B9;stroke-width:18;stroke-miterlimit:10;}
	.st11{fill:none;stroke:#000000;stroke-width:18;stroke-miterlimit:10;}
	.st12{fill:none;stroke:#000000;stroke-width:22;stroke-miterlimit:10;}
	.st13{fill:none;stroke:#000000;stroke-width:40;stroke-miterlimit:10;}
	.st14{fill:none;stroke:#FFFFFF;stroke-width:22;stroke-miterlimit:10;}
	.st15{fill:none;stroke:#EFD8B9;stroke-width:22;stroke-miterlimit:10;}
	.st16{fill:none;stroke:#000000;stroke-width:15;stroke-miterlimit:10;}
</style>
<path class="st5" d="M228.76,387h-5.26c-27.64,0-50.06-22.41-50.06-50.06V70.31c0-27.64,22.41-50.06,50.06-50.06h5.26
	c27.64,0,50.06,22.41,50.06,50.06v266.64C278.81,364.59,256.4,387,228.76,387z"/>
<path class="st14" d="M409.5,201.08v5.09c0,27.69-22.45,50.14-50.14,50.14H92.89c-27.69,0-50.14-22.45-50.14-50.14v-5.09
	c0-27.69,22.45-50.14,50.14-50.14h266.47C387.05,150.94,409.5,173.39,409.5,201.08z"/>
</svg>
