<?xml version="1.0" encoding="UTF-8"?>
<svg id="Layer_1" data-name="Layer 1" xmlns="http://www.w3.org/2000/svg" viewBox="0 0 231.51 36.01">
  <defs>
    <style>
      .cls-1 {
        font-family: Ubuntu-Bold, Ubuntu;
        font-size: 33.74px;
        font-weight: 700;
      }
    </style>
  </defs>
  <g>
    <path d="m65.63,5.4h1.16v8.32h-1.16v-3.84h-4.07v3.84h-1.16V5.4h1.16v3.47h4.07v-3.47Z"/>
    <path d="m73.76,13.54c-.26.06-.59.13-1.01.21-.42.07-.91.11-1.46.11-.48,0-.88-.07-1.21-.21-.33-.14-.59-.34-.79-.59s-.34-.56-.43-.91c-.09-.35-.13-.73-.13-1.16v-3.5h1.12v3.26c0,.76.12,1.3.36,1.63.24.33.64.49,1.21.49.12,0,.24,0,.37-.01s.25-.02.36-.03c.11-.01.21-.02.31-.04.09-.01.16-.03.2-.04v-5.27h1.12v6.06Z"/>
    <path d="m75.68,7.66c.26-.06.59-.13,1.01-.2.42-.07.91-.11,1.46-.11.4,0,.74.05,1.01.16.27.11.5.27.68.47.06-.04.14-.1.26-.17.12-.07.27-.14.44-.21s.37-.13.59-.18c.22-.05.45-.08.7-.08.48,0,.87.07,1.18.21.3.14.54.34.71.59s.29.56.35.91c.06.35.09.74.09,1.15v3.5h-1.12v-3.26c0-.37-.02-.68-.05-.95-.04-.26-.1-.48-.2-.66-.1-.18-.24-.31-.41-.39s-.39-.13-.67-.13c-.38,0-.69.05-.93.15-.24.1-.41.19-.5.27.06.21.11.44.14.68.03.25.05.51.05.78v3.5h-1.12v-3.26c0-.37-.02-.68-.06-.95-.04-.26-.11-.48-.21-.66-.1-.18-.24-.31-.41-.39s-.39-.13-.65-.13c-.11,0-.23,0-.36.01s-.25.02-.37.03c-.12.01-.22.03-.32.04-.1.02-.16.03-.19.04v5.27h-1.12v-6.06Z"/>
    <path d="m88.03,7.32c.45,0,.83.06,1.13.17.31.12.56.28.74.49.19.21.32.46.4.76.08.29.12.61.12.97v3.9c-.1.02-.23.04-.4.07-.17.03-.37.05-.58.08-.22.02-.45.04-.7.06-.25.02-.5.03-.75.03-.35,0-.68-.04-.97-.11-.3-.07-.55-.19-.77-.34-.22-.16-.38-.36-.5-.62s-.18-.56-.18-.92.07-.64.21-.89c.14-.25.33-.45.57-.6.24-.15.52-.26.84-.34.32-.07.66-.11,1.01-.11.11,0,.23,0,.35.02.12.01.23.03.34.05s.2.04.28.05.14.03.17.04v-.31c0-.18-.02-.37-.06-.55-.04-.18-.11-.34-.22-.48-.1-.14-.25-.25-.43-.34s-.41-.13-.7-.13c-.37,0-.69.03-.97.08s-.48.11-.62.16l-.13-.92c.14-.06.38-.13.72-.19s.7-.09,1.09-.09Zm.1,5.59c.26,0,.5,0,.7-.02.2-.01.37-.03.51-.07v-1.86c-.08-.04-.21-.07-.39-.1-.18-.03-.4-.04-.65-.04-.17,0-.35.01-.53.04-.19.02-.36.07-.52.15-.16.08-.29.18-.39.31-.1.13-.16.31-.16.52,0,.4.13.68.38.83.26.16.6.23,1.04.23Z"/>
    <path d="m92.27,7.66c.26-.06.6-.13,1.02-.2.42-.07.91-.11,1.46-.11.5,0,.91.07,1.24.21.33.14.59.34.79.59.2.25.33.55.41.91s.12.74.12,1.16v3.5h-1.12v-3.26c0-.38-.03-.71-.08-.98-.05-.27-.14-.49-.26-.66s-.28-.29-.48-.37c-.2-.08-.45-.11-.74-.11-.12,0-.24,0-.37.01s-.25.02-.37.03c-.12.01-.22.03-.31.04-.09.02-.16.03-.2.04v5.27h-1.12v-6.06Z"/>
    <path d="m98.51,9.6h2.96v1.04h-2.96v-1.04Z"/>
    <path d="m106.4,13.9c-.58,0-1.12-.1-1.6-.29-.48-.19-.89-.47-1.24-.84-.34-.37-.61-.82-.8-1.36-.19-.54-.28-1.16-.28-1.85s.11-1.31.32-1.85.5-.99.86-1.36.78-.65,1.26-.84c.48-.19.99-.29,1.54-.29.34,0,.65.02.93.07.28.05.52.1.72.17s.37.13.5.19c.13.06.22.11.26.14l-.34.96c-.07-.05-.18-.1-.31-.16-.14-.06-.29-.11-.46-.17s-.36-.1-.56-.14-.41-.05-.62-.05c-.44,0-.84.08-1.19.23-.35.15-.65.37-.9.66s-.44.64-.57,1.05-.2.87-.2,1.39.06.95.17,1.36c.12.41.29.76.52,1.05.23.29.52.52.87.68.35.16.75.24,1.22.24.54,0,.98-.06,1.33-.17.35-.11.62-.21.79-.3l.3.96c-.06.04-.16.09-.3.15-.14.06-.32.12-.54.17s-.47.1-.76.14c-.29.04-.6.06-.94.06Z"/>
    <path d="m115.52,10.6c0,.5-.07.94-.22,1.34-.14.4-.35.74-.61,1.03-.26.29-.57.51-.93.67-.36.16-.75.23-1.18.23s-.82-.08-1.18-.23c-.36-.16-.67-.38-.93-.67-.26-.29-.46-.63-.61-1.03-.14-.4-.22-.85-.22-1.34s.07-.93.22-1.34c.14-.4.35-.75.61-1.04.26-.29.57-.51.93-.67.36-.16.75-.23,1.18-.23s.82.08,1.18.23c.36.16.67.38.93.67.26.29.46.63.61,1.04.14.4.22.85.22,1.34Zm-1.16,0c0-.7-.16-1.26-.47-1.67-.32-.41-.75-.62-1.29-.62s-.97.21-1.29.62-.47.97-.47,1.67.16,1.26.47,1.67.75.62,1.29.62.97-.21,1.29-.62c.32-.41.47-.97.47-1.67Z"/>
    <path d="m117.09,7.66c.26-.06.59-.13,1.01-.2.42-.07.91-.11,1.46-.11.4,0,.74.05,1.01.16.27.11.5.27.68.47.06-.04.14-.1.26-.17.12-.07.27-.14.44-.21s.37-.13.59-.18c.22-.05.45-.08.7-.08.48,0,.87.07,1.18.21.3.14.54.34.71.59s.29.56.35.91c.06.35.09.74.09,1.15v3.5h-1.12v-3.26c0-.37-.02-.68-.05-.95-.04-.26-.1-.48-.2-.66-.1-.18-.24-.31-.41-.39s-.39-.13-.67-.13c-.38,0-.69.05-.93.15-.24.1-.41.19-.5.27.06.21.11.44.14.68.03.25.05.51.05.78v3.5h-1.12v-3.26c0-.37-.02-.68-.06-.95-.04-.26-.11-.48-.21-.66-.1-.18-.24-.31-.41-.39s-.39-.13-.65-.13c-.11,0-.23,0-.36.01s-.25.02-.37.03c-.12.01-.22.03-.32.04-.1.02-.16.03-.19.04v5.27h-1.12v-6.06Z"/>
    <path d="m132.92,10.61c0,.47-.06.91-.19,1.31-.12.4-.31.74-.55,1.03-.24.29-.53.51-.88.67-.35.16-.75.24-1.19.24-.36,0-.68-.05-.95-.14-.28-.1-.48-.19-.62-.28v2.5h-1.12V7.67c.26-.06.59-.13.99-.21.4-.08.85-.11,1.37-.11.48,0,.91.08,1.3.23.38.15.71.37.98.65.27.28.48.62.63,1.03.15.4.22.86.22,1.36Zm-1.16,0c0-.73-.18-1.29-.54-1.68-.36-.39-.84-.59-1.44-.59-.34,0-.6.01-.79.04-.19.02-.34.05-.45.08v3.94c.14.11.33.22.59.32.26.1.54.16.84.16.32,0,.59-.06.82-.17.23-.12.41-.28.56-.48.14-.2.25-.44.31-.72.06-.28.1-.57.1-.89Z"/>
    <path d="m139.46,13.54c-.26.06-.59.13-1.01.21-.42.07-.91.11-1.46.11-.48,0-.88-.07-1.21-.21-.33-.14-.59-.34-.79-.59s-.34-.56-.43-.91c-.09-.35-.13-.73-.13-1.16v-3.5h1.12v3.26c0,.76.12,1.3.36,1.63.24.33.64.49,1.21.49.12,0,.24,0,.37-.01s.25-.02.36-.03c.11-.01.21-.02.31-.04.09-.01.16-.03.2-.04v-5.27h1.12v6.06Z"/>
    <path d="m142.42,7.48h2.36v.94h-2.36v2.88c0,.31.02.57.07.77s.12.36.22.48c.1.12.22.2.36.25.14.05.31.07.5.07.34,0,.61-.04.81-.11.21-.08.35-.13.43-.16l.22.92c-.11.06-.31.12-.59.21s-.6.13-.96.13c-.42,0-.77-.05-1.05-.16-.28-.11-.5-.27-.67-.49-.17-.22-.29-.48-.35-.8-.07-.32-.1-.68-.1-1.1v-5.57l1.12-.19v1.93Z"/>
    <path d="m145.73,10.61c0-.55.08-1.03.24-1.45.16-.41.37-.75.64-1.03s.57-.48.91-.61.7-.2,1.06-.2c.84,0,1.48.26,1.93.79.45.52.67,1.32.67,2.39v.19c0,.08,0,.15-.01.21h-4.27c.05.65.23,1.14.56,1.48s.84.5,1.54.5c.39,0,.72-.03.99-.1.27-.07.47-.13.61-.2l.16.94c-.14.07-.38.15-.71.23-.34.08-.72.12-1.16.12-.54,0-1.01-.08-1.41-.25-.39-.16-.72-.39-.98-.68-.26-.29-.45-.63-.57-1.03-.12-.4-.19-.83-.19-1.3Zm4.28-.61c0-.5-.12-.92-.38-1.24-.26-.32-.62-.49-1.07-.49-.26,0-.48.05-.68.15-.2.1-.36.23-.5.39-.13.16-.24.34-.32.55s-.13.42-.15.64h3.1Z"/>
    <path d="m155.09,7.35c.1,0,.21,0,.33.02.12.01.25.03.37.05.12.02.23.04.33.06s.17.04.22.05l-.19.97c-.09-.03-.23-.07-.44-.11-.2-.04-.46-.07-.79-.07-.21,0-.41.02-.62.07-.2.04-.34.07-.4.09v5.24h-1.12v-5.98c.26-.1.59-.19.98-.27s.83-.13,1.32-.13Z"/>
    <path d="m160.27,5.4h1.16v8.32h-1.16V5.4Z"/>
    <path d="m163.42,7.66c.26-.06.6-.13,1.02-.2.42-.07.91-.11,1.46-.11.49,0,.91.07,1.23.21.33.14.59.34.79.59.2.25.33.55.41.91s.12.74.12,1.16v3.5h-1.12v-3.26c0-.38-.03-.71-.08-.98s-.14-.49-.26-.66c-.12-.17-.28-.29-.48-.37s-.45-.11-.74-.11c-.12,0-.24,0-.37.01-.13,0-.25.02-.37.03-.12.01-.22.03-.31.04-.09.02-.16.03-.2.04v5.27h-1.12v-6.06Z"/>
    <path d="m171.35,7.48h2.36v.94h-2.36v2.88c0,.31.02.57.07.77.05.2.12.36.21.48.1.12.22.2.36.25.14.05.31.07.5.07.34,0,.61-.04.81-.11.21-.08.35-.13.43-.16l.22.92c-.11.06-.31.12-.59.21s-.6.13-.96.13c-.42,0-.77-.05-1.05-.16-.28-.11-.5-.27-.67-.49-.17-.22-.29-.48-.35-.8-.07-.32-.1-.68-.1-1.1v-5.57l1.12-.19v1.93Z"/>
    <path d="m174.67,10.61c0-.55.08-1.03.24-1.45.16-.41.37-.75.64-1.03s.57-.48.91-.61.7-.2,1.06-.2c.84,0,1.48.26,1.93.79.45.52.67,1.32.67,2.39v.19c0,.08,0,.15-.01.21h-4.27c.05.65.23,1.14.56,1.48s.84.5,1.54.5c.39,0,.72-.03.99-.1.27-.07.47-.13.61-.2l.16.94c-.14.07-.38.15-.71.23-.34.08-.72.12-1.16.12-.54,0-1.01-.08-1.41-.25-.39-.16-.72-.39-.98-.68-.26-.29-.45-.63-.57-1.03-.12-.4-.19-.83-.19-1.3Zm4.28-.61c0-.5-.12-.92-.38-1.24-.26-.32-.62-.49-1.07-.49-.26,0-.48.05-.68.15-.2.1-.36.23-.5.39-.13.16-.24.34-.32.55s-.13.42-.15.64h3.1Z"/>
    <path d="m184.03,7.35c.1,0,.21,0,.33.02.12.01.25.03.37.05.12.02.23.04.33.06s.17.04.22.05l-.19.97c-.09-.03-.23-.07-.44-.11-.2-.04-.46-.07-.79-.07-.21,0-.41.02-.62.07-.2.04-.34.07-.4.09v5.24h-1.12v-5.98c.26-.1.59-.19.98-.27s.83-.13,1.32-.13Z"/>
    <path d="m188.37,7.32c.45,0,.83.06,1.13.17.31.12.56.28.74.49s.32.46.4.76c.08.29.12.61.12.97v3.9c-.1.02-.23.04-.4.07-.17.03-.37.05-.58.08-.21.02-.45.04-.7.06-.25.02-.5.03-.75.03-.35,0-.68-.04-.97-.11-.29-.07-.55-.19-.77-.34-.21-.16-.38-.36-.5-.62-.12-.26-.18-.56-.18-.92s.07-.64.21-.89c.14-.25.33-.45.57-.6.24-.15.52-.26.84-.34.32-.07.66-.11,1.01-.11.11,0,.23,0,.35.02.12.01.23.03.34.05.11.02.2.04.28.05s.14.03.17.04v-.31c0-.18-.02-.37-.06-.55-.04-.18-.11-.34-.21-.48-.1-.14-.25-.25-.43-.34s-.41-.13-.7-.13c-.37,0-.69.03-.96.08-.28.05-.48.11-.62.16l-.13-.92c.14-.06.38-.13.72-.19s.7-.09,1.09-.09Zm.1,5.59c.26,0,.5,0,.7-.02.2-.01.37-.03.51-.07v-1.86c-.08-.04-.21-.07-.39-.1-.18-.03-.4-.04-.65-.04-.17,0-.35.01-.54.04s-.36.07-.52.15c-.16.08-.29.18-.39.31-.1.13-.16.31-.16.52,0,.4.13.68.38.83s.6.23,1.04.23Z"/>
    <path d="m195.33,13.86c-.5,0-.95-.08-1.33-.24-.38-.16-.7-.38-.96-.67s-.46-.63-.58-1.03c-.13-.4-.19-.83-.19-1.31s.07-.92.21-1.32c.14-.4.34-.75.59-1.04s.57-.52.94-.68c.37-.16.79-.25,1.24-.25.28,0,.56.02.84.07.28.05.55.12.8.23l-.25.95c-.17-.08-.36-.14-.58-.19-.22-.05-.45-.07-.7-.07-.62,0-1.1.2-1.43.59-.33.39-.5.96-.5,1.72,0,.34.04.64.11.92.08.28.2.52.36.72.16.2.38.35.63.46.26.11.57.16.94.16.3,0,.56-.03.8-.08.24-.06.43-.12.56-.18l.16.94c-.06.04-.16.08-.28.11s-.26.07-.41.1c-.15.03-.31.05-.49.07-.17.02-.34.03-.5.03Z"/>
    <path d="m199.24,7.48h2.37v.94h-2.37v2.88c0,.31.03.57.07.77.05.2.12.36.22.48.1.12.21.2.36.25.14.05.31.07.5.07.34,0,.61-.04.81-.11.2-.08.35-.13.43-.16l.22.92c-.11.06-.31.12-.59.21-.28.08-.6.13-.96.13-.42,0-.77-.05-1.05-.16-.28-.11-.5-.27-.67-.49-.17-.22-.29-.48-.35-.8s-.1-.68-.1-1.1v-5.57l1.12-.19v1.93Z"/>
    <path d="m203.57,6.35c-.2,0-.37-.07-.51-.2-.14-.13-.21-.31-.21-.53s.07-.4.21-.53c.14-.13.31-.2.51-.2s.37.07.51.2c.14.13.21.31.21.53s-.07.4-.21.53c-.14.13-.31.2-.51.2Zm.56,7.37h-1.12v-6.24h1.12v6.24Z"/>
    <path d="m211.56,10.6c0,.5-.07.94-.22,1.34-.14.4-.35.74-.61,1.03-.26.29-.57.51-.93.67-.36.16-.75.23-1.18.23s-.82-.08-1.18-.23c-.36-.16-.67-.38-.93-.67-.26-.29-.46-.63-.61-1.03s-.21-.85-.21-1.34.07-.93.21-1.34c.14-.4.35-.75.61-1.04.26-.29.57-.51.93-.67.36-.16.75-.23,1.18-.23s.82.08,1.18.23c.36.16.67.38.93.67s.46.63.61,1.04c.14.4.22.85.22,1.34Zm-1.16,0c0-.7-.16-1.26-.47-1.67s-.75-.62-1.29-.62-.97.21-1.29.62-.47.97-.47,1.67.16,1.26.47,1.67.75.62,1.29.62.97-.21,1.29-.62.47-.97.47-1.67Z"/>
    <path d="m213.14,7.66c.26-.06.6-.13,1.02-.2.42-.07.91-.11,1.46-.11.49,0,.91.07,1.23.21.33.14.59.34.79.59.2.25.33.55.41.91s.12.74.12,1.16v3.5h-1.12v-3.26c0-.38-.03-.71-.08-.98s-.14-.49-.26-.66c-.12-.17-.28-.29-.48-.37s-.45-.11-.74-.11c-.12,0-.24,0-.37.01-.13,0-.25.02-.37.03-.12.01-.22.03-.31.04-.09.02-.16.03-.2.04v5.27h-1.12v-6.06Z"/>
    <path d="m62.65,28.19c-.17,0-.35,0-.55-.01-.2,0-.39-.02-.59-.04-.2-.02-.39-.04-.58-.06-.19-.02-.37-.06-.53-.1v-8.06c.16-.04.34-.07.53-.1.19-.03.39-.04.58-.06.2-.02.39-.03.58-.04.19,0,.37-.01.54-.01.48,0,.93.04,1.35.11s.78.19,1.09.37c.31.17.55.4.73.68.18.28.26.62.26,1.03,0,.46-.11.83-.32,1.12-.22.29-.5.51-.86.65.49.14.88.37,1.16.68s.43.75.43,1.32c0,.83-.31,1.46-.92,1.88-.61.42-1.58.63-2.91.63Zm-1.09-4.88h1.22c.29,0,.56-.02.82-.06.26-.04.48-.11.67-.22.19-.1.34-.24.44-.41s.16-.38.16-.63c0-.24-.06-.44-.17-.61-.11-.16-.27-.29-.46-.39-.2-.1-.43-.17-.69-.22-.26-.05-.54-.07-.84-.07s-.53,0-.7.01-.32.02-.46.04v2.57Zm0,.94v2.93c.09,0,.19.02.31.02.1,0,.23.01.37.02.14,0,.3,0,.49,0,.34,0,.67-.02.98-.06.31-.04.58-.12.81-.23.23-.11.42-.27.56-.47.14-.2.21-.45.21-.76,0-.27-.05-.5-.16-.69-.1-.19-.25-.34-.45-.45-.2-.11-.43-.19-.7-.24-.27-.05-.58-.07-.91-.07h-1.5Z"/>
    <path d="m67.7,25.01c0-.55.08-1.03.24-1.45s.37-.75.64-1.03c.26-.27.57-.47.91-.61.34-.14.7-.21,1.06-.21.84,0,1.48.26,1.93.79s.67,1.32.67,2.39v.19c0,.08,0,.15-.01.21h-4.27c.05.65.24,1.14.56,1.48s.84.5,1.54.5c.39,0,.72-.03.99-.1.27-.07.47-.13.61-.2l.16.94c-.14.07-.37.15-.71.23-.34.08-.73.12-1.16.12-.54,0-1.01-.08-1.41-.25-.4-.16-.72-.39-.98-.68-.26-.29-.45-.63-.57-1.03-.12-.4-.19-.83-.19-1.3Zm4.28-.61c0-.5-.12-.92-.38-1.24-.26-.32-.62-.49-1.07-.49-.26,0-.48.05-.68.15-.2.1-.36.23-.5.39-.14.16-.24.35-.32.55-.08.21-.13.42-.15.64h3.1Z"/>
    <path d="m77.06,21.75c.1,0,.21,0,.33.02s.25.03.37.05c.12.02.23.04.33.06.1.02.17.04.22.05l-.19.97c-.09-.03-.23-.07-.44-.12-.2-.04-.47-.07-.79-.07-.21,0-.41.02-.62.07-.2.04-.34.07-.4.09v5.24h-1.12v-5.97c.26-.1.59-.19.98-.27.39-.08.83-.12,1.32-.12Z"/>
    <path d="m81.26,28.24c-.69-.02-1.18-.16-1.46-.45-.29-.28-.43-.71-.43-1.31v-7.49l1.12-.19v7.5c0,.18.02.34.05.46.03.12.08.22.16.29.07.07.17.13.29.16.12.04.27.07.44.09l-.16.94Z"/>
    <path d="m83.21,20.75c-.2,0-.37-.07-.51-.2-.14-.13-.21-.31-.21-.53s.07-.4.21-.53c.14-.13.31-.2.51-.2s.37.07.51.2c.14.13.21.31.21.53s-.07.4-.21.53c-.14.13-.31.2-.51.2Zm.56,7.37h-1.12v-6.24h1.12v6.24Z"/>
    <path d="m85.7,22.06c.26-.06.6-.13,1.02-.21.42-.07.91-.11,1.46-.11.5,0,.91.07,1.24.21.33.14.59.34.79.59s.33.55.41.91c.08.35.12.74.12,1.16v3.5h-1.12v-3.26c0-.38-.03-.71-.08-.98-.05-.27-.14-.49-.26-.66s-.28-.29-.48-.37c-.2-.08-.45-.11-.74-.11-.12,0-.24,0-.37.01s-.25.02-.37.03-.22.03-.31.04c-.09.02-.16.03-.2.04v5.27h-1.12v-6.06Z"/>
    <path d="m92.24,25.01c0-.55.08-1.03.24-1.45s.37-.75.64-1.03c.26-.27.57-.47.91-.61.34-.14.7-.21,1.06-.21.84,0,1.48.26,1.93.79s.67,1.32.67,2.39v.19c0,.08,0,.15-.01.21h-4.27c.05.65.24,1.14.56,1.48s.84.5,1.54.5c.39,0,.72-.03.99-.1.27-.07.47-.13.61-.2l.16.94c-.14.07-.37.15-.71.23-.34.08-.73.12-1.16.12-.54,0-1.01-.08-1.41-.25-.4-.16-.72-.39-.98-.68-.26-.29-.45-.63-.57-1.03-.12-.4-.19-.83-.19-1.3Zm4.28-.61c0-.5-.12-.92-.38-1.24-.26-.32-.62-.49-1.07-.49-.26,0-.48.05-.68.15-.2.1-.36.23-.5.39-.14.16-.24.35-.32.55-.08.21-.13.42-.15.64h3.1Z"/>
    <path d="m101.6,21.75c.1,0,.21,0,.33.02s.25.03.37.05c.12.02.23.04.33.06.1.02.17.04.22.05l-.19.97c-.09-.03-.23-.07-.44-.12-.2-.04-.47-.07-.79-.07-.21,0-.41.02-.62.07-.2.04-.34.07-.4.09v5.24h-1.12v-5.97c.26-.1.59-.19.98-.27.39-.08.83-.12,1.32-.12Z"/>
    <path d="m112,19.8h1.16v8.32h-1.16v-3.84h-4.07v3.84h-1.16v-8.32h1.16v3.47h4.07v-3.47Z"/>
    <path d="m120.67,25c0,.5-.07.94-.22,1.34-.14.4-.35.74-.61,1.03-.26.29-.57.51-.93.67-.36.16-.75.23-1.18.23s-.82-.08-1.18-.23c-.36-.16-.67-.38-.93-.67-.26-.29-.46-.63-.61-1.03-.14-.4-.22-.85-.22-1.34s.07-.93.22-1.34c.14-.4.35-.75.61-1.04.26-.29.57-.51.93-.67.36-.16.75-.23,1.18-.23s.82.08,1.18.23c.36.16.67.38.93.67.26.29.46.63.61,1.04.14.4.22.85.22,1.34Zm-1.16,0c0-.71-.16-1.26-.47-1.67-.32-.41-.75-.62-1.29-.62s-.97.21-1.29.62-.47.97-.47,1.67.16,1.26.47,1.67.75.62,1.29.62.97-.21,1.29-.62c.32-.41.47-.97.47-1.67Z"/>
    <path d="m124.95,28.26c-.5,0-.95-.08-1.33-.24s-.7-.38-.96-.67-.45-.63-.58-1.03c-.13-.4-.19-.83-.19-1.31s.07-.92.21-1.32c.14-.4.34-.75.59-1.04.26-.29.57-.52.94-.69.37-.16.79-.25,1.24-.25.28,0,.56.03.84.07.28.05.55.12.8.23l-.25.95c-.17-.08-.36-.14-.58-.19-.22-.05-.45-.07-.7-.07-.62,0-1.1.2-1.43.59-.33.39-.5.96-.5,1.72,0,.34.04.64.11.92s.2.52.36.72c.16.2.37.35.63.46.26.11.57.16.94.16.3,0,.56-.03.8-.08.24-.05.43-.12.56-.18l.16.94c-.06.04-.16.08-.28.12-.12.04-.26.07-.41.1-.15.03-.31.05-.49.07-.17.02-.34.03-.5.03Z"/>
    <path d="m127.82,28.12v-9.12l1.12-.19v3.19c.21-.08.43-.14.67-.19.24-.04.47-.07.7-.07.5,0,.91.07,1.24.21.33.14.59.34.79.59s.33.55.41.91c.08.35.12.74.12,1.16v3.5h-1.12v-3.26c0-.38-.03-.71-.08-.98-.05-.27-.14-.49-.26-.66s-.28-.29-.48-.37c-.2-.08-.45-.11-.74-.11-.12,0-.24,0-.37.02s-.25.03-.37.05c-.12.02-.22.04-.31.06-.09.03-.16.04-.2.06v5.18h-1.12Z"/>
    <path d="m136.12,27.32c.46,0,.79-.06,1.01-.18.22-.12.33-.31.33-.57s-.11-.49-.32-.65c-.22-.16-.57-.34-1.07-.54-.24-.1-.47-.19-.69-.29s-.41-.22-.57-.36c-.16-.13-.29-.3-.38-.49-.1-.19-.14-.43-.14-.71,0-.55.2-.99.61-1.31.41-.32.96-.49,1.67-.49.18,0,.35.01.53.03s.34.04.49.07c.15.03.29.06.4.09.12.03.21.06.27.08l-.2.96c-.12-.06-.31-.13-.56-.2-.26-.07-.56-.1-.92-.1-.31,0-.58.06-.82.19-.23.12-.35.32-.35.58,0,.14.03.26.08.36s.13.2.24.28c.11.08.24.16.4.23.16.07.35.15.58.23.3.11.56.22.79.33.23.11.43.23.59.38.16.14.29.32.38.52s.13.45.13.75c0,.58-.21,1.01-.64,1.31-.43.29-1.04.44-1.83.44-.55,0-.98-.05-1.3-.14-.31-.09-.52-.16-.64-.21l.2-.96c.13.05.33.12.61.22s.65.14,1.12.14Z"/>
    <path d="m142.73,28.26c-.5,0-.95-.08-1.33-.24s-.7-.38-.96-.67-.45-.63-.58-1.03c-.13-.4-.19-.83-.19-1.31s.07-.92.21-1.32c.14-.4.34-.75.59-1.04.26-.29.57-.52.94-.69.37-.16.79-.25,1.24-.25.28,0,.56.03.84.07.28.05.55.12.8.23l-.25.95c-.17-.08-.36-.14-.58-.19-.22-.05-.45-.07-.7-.07-.62,0-1.1.2-1.43.59-.33.39-.5.96-.5,1.72,0,.34.04.64.11.92s.2.52.36.72c.16.2.37.35.63.46.26.11.57.16.94.16.3,0,.56-.03.8-.08.24-.05.43-.12.56-.18l.16.94c-.06.04-.16.08-.28.12-.12.04-.26.07-.41.1-.15.03-.31.05-.49.07-.17.02-.34.03-.5.03Z"/>
    <path d="m145.6,28.12v-9.12l1.12-.19v3.19c.21-.08.43-.14.67-.19.24-.04.47-.07.7-.07.49,0,.91.07,1.23.21.33.14.59.34.79.59.2.25.33.55.41.91.08.35.12.74.12,1.16v3.5h-1.12v-3.26c0-.38-.03-.71-.08-.98-.05-.27-.14-.49-.26-.66-.12-.17-.28-.29-.48-.37s-.45-.11-.74-.11c-.12,0-.24,0-.37.02-.13.02-.25.03-.37.05-.12.02-.22.04-.31.06-.09.03-.16.04-.2.06v5.18h-1.12Z"/>
    <path d="m157.42,27.94c-.26.06-.59.13-1.01.21-.42.07-.91.11-1.46.11-.48,0-.88-.07-1.21-.21-.33-.14-.59-.34-.79-.59-.2-.26-.34-.56-.43-.91s-.13-.73-.13-1.16v-3.5h1.12v3.27c0,.76.12,1.3.36,1.63s.64.49,1.21.49c.12,0,.24,0,.37-.01.13,0,.25-.02.36-.03.11-.01.21-.03.31-.04s.16-.03.2-.04v-5.27h1.12v6.06Z"/>
    <path d="m161.21,28.24c-.69-.02-1.18-.16-1.46-.45-.29-.28-.43-.71-.43-1.31v-7.49l1.12-.19v7.5c0,.18.02.34.05.46.03.12.08.22.16.29.07.07.17.13.29.16.12.04.27.07.44.09l-.16.94Z"/>
    <path d="m162.27,25.01c0-.55.08-1.03.24-1.45s.37-.75.64-1.03c.26-.27.57-.47.91-.61s.7-.21,1.06-.21c.84,0,1.48.26,1.93.79.45.52.67,1.32.67,2.39v.19c0,.08,0,.15-.01.21h-4.27c.05.65.23,1.14.56,1.48s.84.5,1.54.5c.39,0,.72-.03.99-.1.27-.07.47-.13.61-.2l.16.94c-.14.07-.38.15-.71.23-.34.08-.72.12-1.16.12-.54,0-1.01-.08-1.41-.25-.39-.16-.72-.39-.98-.68-.26-.29-.45-.63-.57-1.03-.12-.4-.19-.83-.19-1.3Zm4.28-.61c0-.5-.12-.92-.38-1.24-.26-.32-.62-.49-1.07-.49-.26,0-.48.05-.68.15-.2.1-.36.23-.5.39-.13.16-.24.35-.32.55-.08.21-.13.42-.15.64h3.1Z"/>
    <path d="m174.53,18.81c.33,0,.61.02.85.07.23.05.4.09.5.13l-.21.96c-.1-.05-.23-.09-.41-.14-.18-.04-.39-.07-.65-.07-.52,0-.88.14-1.09.43-.21.29-.31.67-.31,1.15v.54h2.4v.94h-2.4v5.3h-1.12v-6.8c0-.8.2-1.42.59-1.86.39-.44,1.01-.65,1.85-.65Z"/>
    <path d="m181.7,27.94c-.26.06-.59.13-1.01.21-.42.07-.91.11-1.46.11-.48,0-.88-.07-1.21-.21-.33-.14-.59-.34-.79-.59-.2-.26-.34-.56-.43-.91s-.13-.73-.13-1.16v-3.5h1.12v3.27c0,.76.12,1.3.36,1.63s.64.49,1.21.49c.12,0,.24,0,.37-.01.13,0,.25-.02.36-.03.11-.01.21-.03.31-.04s.16-.03.2-.04v-5.27h1.12v6.06Zm-3.66-7.21c-.18,0-.35-.07-.49-.2-.14-.13-.21-.3-.21-.51s.07-.38.21-.51.3-.2.49-.2.35.06.49.2c.14.13.21.3.21.51s-.07.38-.21.51c-.14.13-.3.2-.49.2Zm2.28,0c-.18,0-.35-.07-.49-.2-.14-.13-.21-.3-.21-.51s.07-.38.21-.51c.14-.13.3-.2.49-.2s.35.06.49.2.21.3.21.51-.07.38-.21.51c-.14.13-.3.2-.49.2Z"/>
    <path d="m185.92,21.75c.1,0,.21,0,.33.02.12.01.25.03.37.05.12.02.23.04.33.06.1.02.17.04.22.05l-.19.97c-.09-.03-.23-.07-.44-.12-.21-.04-.47-.07-.79-.07-.21,0-.41.02-.62.07-.2.04-.34.07-.4.09v5.24h-1.12v-5.97c.26-.1.59-.19.98-.27.39-.08.83-.12,1.32-.12Z"/>
    <path d="m196.65,19.8v1.01h-2.62v7.31h-1.16v-7.31h-2.62v-1.01h6.4Z"/>
    <path d="m196.79,25.01c0-.55.08-1.03.24-1.45s.37-.75.64-1.03c.26-.27.57-.47.91-.61s.7-.21,1.06-.21c.84,0,1.48.26,1.93.79.45.52.67,1.32.67,2.39v.19c0,.08,0,.15-.01.21h-4.27c.05.65.23,1.14.56,1.48s.84.5,1.54.5c.39,0,.72-.03.99-.1.27-.07.47-.13.61-.2l.16.94c-.14.07-.38.15-.71.23-.34.08-.72.12-1.16.12-.54,0-1.01-.08-1.41-.25-.39-.16-.72-.39-.98-.68-.26-.29-.45-.63-.57-1.03-.12-.4-.19-.83-.19-1.3Zm4.28-.61c0-.5-.12-.92-.38-1.24-.26-.32-.62-.49-1.07-.49-.26,0-.48.05-.68.15-.2.1-.36.23-.5.39-.13.16-.24.35-.32.55-.08.21-.13.42-.15.64h3.1Z"/>
    <path d="m206.56,28.26c-.5,0-.95-.08-1.33-.24-.38-.16-.7-.38-.96-.67s-.45-.63-.58-1.03c-.13-.4-.19-.83-.19-1.31s.07-.92.21-1.32c.14-.4.34-.75.59-1.04.26-.29.57-.52.94-.69.37-.16.79-.25,1.24-.25.28,0,.56.03.84.07.28.05.55.12.8.23l-.25.95c-.17-.08-.36-.14-.58-.19-.22-.05-.46-.07-.7-.07-.62,0-1.1.2-1.43.59-.33.39-.5.96-.5,1.72,0,.34.04.64.11.92s.2.52.36.72c.16.2.37.35.63.46.26.11.57.16.94.16.29,0,.56-.03.8-.08.24-.05.43-.12.56-.18l.16.94c-.06.04-.16.08-.28.12-.12.04-.26.07-.41.1-.15.03-.31.05-.49.07-.17.02-.34.03-.5.03Z"/>
    <path d="m209.43,28.12v-9.12l1.12-.19v3.19c.21-.08.43-.14.67-.19.23-.04.47-.07.7-.07.5,0,.91.07,1.24.21.33.14.59.34.79.59.2.25.33.55.41.91.08.35.12.74.12,1.16v3.5h-1.12v-3.26c0-.38-.03-.71-.08-.98-.05-.27-.14-.49-.26-.66-.12-.17-.28-.29-.48-.37-.2-.08-.45-.11-.74-.11-.12,0-.24,0-.37.02-.13.02-.25.03-.37.05-.12.02-.22.04-.31.06-.09.03-.16.04-.2.06v5.18h-1.12Z"/>
    <path d="m216.28,22.06c.26-.06.6-.13,1.02-.21.42-.07.91-.11,1.46-.11.5,0,.91.07,1.24.21.33.14.59.34.79.59.2.25.33.55.41.91.08.35.12.74.12,1.16v3.5h-1.12v-3.26c0-.38-.03-.71-.08-.98-.05-.27-.14-.49-.26-.66-.12-.17-.28-.29-.48-.37-.2-.08-.45-.11-.74-.11-.12,0-.24,0-.37.01-.13,0-.25.02-.37.03-.12.01-.22.03-.31.04-.09.02-.16.03-.2.04v5.27h-1.12v-6.06Z"/>
    <path d="m223.72,20.75c-.2,0-.37-.07-.51-.2-.14-.13-.21-.31-.21-.53s.07-.4.21-.53c.14-.13.31-.2.51-.2s.37.07.51.2c.14.13.21.31.21.53s-.07.4-.21.53c-.14.13-.31.2-.51.2Zm.56,7.37h-1.12v-6.24h1.12v6.24Z"/>
    <path d="m228.46,24.69c.24.18.49.41.76.68.27.27.53.57.79.88s.51.63.74.96.43.63.59.91h-1.31c-.17-.28-.36-.56-.58-.86-.22-.29-.45-.57-.69-.84s-.48-.51-.73-.74-.48-.41-.71-.56v3h-1.12v-9.12l1.12-.19v5.69c.19-.19.4-.4.63-.64s.46-.47.69-.71c.22-.24.44-.47.63-.69.2-.22.37-.41.52-.58h1.31c-.18.2-.38.42-.6.66-.22.24-.44.48-.67.73s-.47.49-.7.73-.46.47-.67.69Z"/>
  </g>
  <text class="cls-1" transform="translate(0 28.56)"><tspan x="0" y="0">HCI</tspan></text>
</svg>