<?xml version="1.0" encoding="utf-8"?>
<!-- Generator: Adobe Illustrator 25.4.1, SVG Export Plug-In . SVG Version: 6.00 Build 0)  -->
<svg version="1.1" id="Layer_1" xmlns="http://www.w3.org/2000/svg" xmlns:xlink="http://www.w3.org/1999/xlink" x="0px" y="0px"
	 viewBox="0 0 512 373.2" style="enable-background:new 0 0 512 373.2;" xml:space="preserve">
<style type="text/css">
	.st0{fill:#D5681E;}
	.st1{fill:#FF9933;}
	.st2{fill:#7DAEC9;}
	.st3{fill:#BDE5F9;}
	.st4{fill:#983300;}
</style>
<polygon class="st0" points="196,373.2 354,73.4 512,373.2 "/>
<polygon class="st1" points="354,73.4 196,373.2 354,373.2 "/>
<path class="st2" d="M354,203.4c17.1,0,17.1,10.9,34.3,10.9c17.1,0,17.1-10.9,34.3-10.9L354,73.4l-68.5,130
	c17.1,0,17.1,10.9,34.2,10.9C336.9,214.3,336.9,203.4,354,203.4z"/>
<path class="st3" d="M354,73.4l-68.5,130c17.1,0,17.1,10.9,34.2,10.9c17.1,0,17.1-10.9,34.3-10.9c0,0,0,0,0,0V73.4z"/>
<polygon class="st4" points="0,373.2 196.6,0 393.3,373.2 "/>
<polygon class="st0" points="196.6,0 0,373.2 196.6,373.2 "/>
<path class="st2" d="M196.6,161.8c21.3,0,21.3,13.6,42.7,13.6c21.3,0,21.3-13.5,42.6-13.6L196.6,0l-85.3,161.8
	c21.3,0,21.3,13.6,42.6,13.6C175.3,175.4,175.3,161.8,196.6,161.8z"/>
<path class="st3" d="M196.6,0l-85.3,161.8c21.3,0,21.3,13.6,42.6,13.6c21.3,0,21.3-13.6,42.6-13.6c0,0,0,0,0,0L196.6,0L196.6,0z"/>
</svg>
