<svg id="Layer_1" data-name="Layer 1" xmlns="http://www.w3.org/2000/svg" viewBox="0 0 333.21 408.71"><defs><style>.cls-1{fill:#fe6e7a;}.cls-2{fill:#fe104d;}.cls-3{fill:#63c0fe;}.cls-4{fill:#2f90ec;}</style></defs><path class="cls-1" d="M113.68,408.71c.09-11,.2-22.06.24-33.09q.06-15.56,0-31.11c0-6,.55-5.21-5.41-5.22-23.14,0-46.27-.08-69.4.07-3.42,0-4.48-.71-4.46-4.33.17-26.2,0-52.4.18-78.59,0-3.73-.73-5.06-4.73-4.92-8.9.32-17.82,0-26.72.16-3.33.07-4-.62-2.85-3.92,11-31.43,21.9-62.93,32.94-94.36a34.82,34.82,0,0,0,1.72-10.55A148.2,148.2,0,0,1,73.42,49.3c21.22-23.23,47.15-38.5,77.86-45.52a86.31,86.31,0,0,1,14.9-2.39q.12,21.54.23,43.08a114.62,114.62,0,0,0-29.73,9.78c-18.45,9-30.14,23.14-31.47,44-1.37,21.57,8.11,37.87,26.67,48.91l34.5,20.54,0,241Z"/><path class="cls-2" d="M166.41,44.47q-.12-21.54-.23-43.08a82.26,82.26,0,0,1,19-1.34c46,1.12,84.23,19,113.92,54.16a140.27,140.27,0,0,1,32.54,73.24c7,53-9.35,97.79-48.88,133.66-6.13,5.57-8.36,10.72-8.28,18.8.41,41.34.19,82.69.2,124,0,1.59.16,3.17.24,4.76H166.36q0-120.51,0-241c1.4.73,2.82,1.42,4.19,2.2q13.45,7.73,26.89,15.48a172.08,172.08,0,0,0,18.47,10.9,50.14,50.14,0,0,0,32.45,4.86c22.78-4,40.38-23.08,41.7-46,1.72-29.74-7.83-55.72-27.86-77.61-17.38-19-39-30.31-64.67-33.49A104.19,104.19,0,0,0,166.41,44.47Z"/><path class="cls-3" d="M197.46,185.37q-13.44-7.74-26.89-15.48c-1.37-.78-2.79-1.47-4.19-2.2l-34.5-20.54c-18.56-11-28-27.34-26.67-48.91,1.33-20.85,13-35,31.47-44a114.62,114.62,0,0,1,29.73-9.78,104.19,104.19,0,0,1,31.14-.4c0,4.78,0,9.56,0,14.33Q197.48,121.9,197.46,185.37Z"/><path class="cls-4" d="M197.46,185.37q0-63.48.06-127c0-4.77,0-9.55,0-14.33,25.69,3.18,47.29,14.51,64.67,33.49,20,21.89,29.58,47.87,27.86,77.61-1.32,22.88-18.92,41.94-41.7,46a50.14,50.14,0,0,1-32.45-4.86A172.08,172.08,0,0,1,197.46,185.37Z"/></svg>