<?xml version="1.0" encoding="utf-8"?>
<!-- Generator: Adobe Illustrator 24.0.2, SVG Export Plug-In . SVG Version: 6.00 Build 0)  -->
<svg version="1.1" id="Layer_1" xmlns="http://www.w3.org/2000/svg" xmlns:xlink="http://www.w3.org/1999/xlink" x="0px" y="0px"
	 viewBox="0 0 1343 1280" style="enable-background:new 0 0 1343 1280;" xml:space="preserve">
<style type="text/css">
	.st0{fill:#F3E4CE;}
</style>
<g>
	<path class="st0" d="M671,188c32.32,0,62.71,12.59,85.56,35.44S792,276.68,792,309v661c0,32.32-12.59,62.71-35.44,85.56
		C733.71,1078.41,703.32,1091,671,1091s-62.71-12.59-85.56-35.44C562.59,1032.71,550,1002.32,550,970V309
		c0-32.32,12.59-62.71,35.44-85.56S638.68,188,671,188 M671,131L671,131c-98.31,0-178,79.69-178,178v661c0,98.31,79.69,178,178,178
		l0,0c98.31,0,178-79.69,178-178V309C849,210.69,769.31,131,671,131L671,131z"/>
</g>
<g>
	<path class="st0" d="M1002,519c32.32,0,62.71,12.59,85.56,35.44c22.85,22.85,35.44,53.24,35.44,85.56s-12.59,62.71-35.44,85.56
		C1064.71,748.41,1034.32,761,1002,761H341c-32.32,0-62.71-12.59-85.56-35.44S220,672.32,220,640s12.59-62.71,35.44-85.56
		S308.68,519,341,519H1002 M1002,462H341c-98.31,0-178,79.69-178,178l0,0c0,98.31,79.69,178,178,178h661c98.31,0,178-79.69,178-178
		l0,0C1180,541.69,1100.31,462,1002,462L1002,462z"/>
</g>
</svg>
