<?xml version="1.0" encoding="utf-8"?>
<!-- Generator: Adobe Illustrator 25.4.1, SVG Export Plug-In . SVG Version: 6.00 Build 0)  -->
<svg version="1.1" id="Layer_1" xmlns="http://www.w3.org/2000/svg" xmlns:xlink="http://www.w3.org/1999/xlink" x="0px" y="0px"
	 viewBox="0 0 512 484" style="enable-background:new 0 0 512 484;" xml:space="preserve">
<style type="text/css">
	.st0{fill:#4652A3;}
	.st1{fill:#4F3F99;}
	.st2{fill:#D4D9EE;}
	.st3{fill:#B6B3D9;}
	.st4{fill:#73739D;}
	.st5{fill:#5275B5;}
	.st6{fill:#FF9E22;}
</style>
<g>
	<rect x="236" class="st0" width="29.7" height="484"/>
	<rect x="290" y="351.2" transform="matrix(0.866 -0.5 0.5 0.866 -166.4659 207.9634)" class="st1" width="29.7" height="126.8"/>
	<rect x="181" y="351.2" transform="matrix(-0.866 -0.5 0.5 -0.866 158.1219 871.5913)" class="st1" width="29.7" height="126.8"/>
	<g>
		<path class="st2" d="M30.1,121.3v277.2H256l15.1-119.1L256,121.3l-112.9-15.1L30.1,121.3z"/>
		<path class="st3" d="M481.9,121.3l-112.9-15.1L256,121.3V174v30.1v30.1v30.1v30.1v30.1v73.9h225.9V121.3z"/>
		<g>
			<path class="st0" d="M438,199c-4,0-137,0-141,0v30.1h141C438,218.6,438,209.5,438,199z"/>
			<path class="st0" d="M438,259.2c-4,0-137,0-141,0v30.1h141C438,278.8,438,269.8,438,259.2z"/>
		</g>
		<path class="st4" d="M0,46v75.3h256l15.1-37.6L256,46C248.8,46,7.2,46,0,46z"/>
		<path class="st5" d="M512,46c-7.2,0-248.8,0-256,0v75.3h256C512,101,512,57.8,512,46z"/>
	</g>
	<circle class="st6" cx="144.5" cy="250.5" r="84.5"/>
</g>
</svg>
