<?xml version="1.0" encoding="iso-8859-1"?>
<!-- Generator: Adobe Illustrator 19.0.0, SVG Export Plug-In . SVG Version: 6.00 Build 0)  -->
<svg version="1.1" id="Capa_1" xmlns="http://www.w3.org/2000/svg" xmlns:xlink="http://www.w3.org/1999/xlink" x="0px" y="0px"
	 viewBox="0 0 512 512" style="enable-background:new 0 0 512 512;" xml:space="preserve">
<polygon style="fill:#8B8992;" points="271,219 241,219 241,140 402,140 402,98 95,98 95,68 432,68 432,170 271,170 "/>
<polygon style="fill:#78777F;" points="255.928,68 255.928,98 402,98 402,140 255.928,140 255.928,219 271,219 271,170 432,170 
	432,68 "/>
<path style="fill:#FF4F19;" d="M392,444c-61.088,0-111.661-45.887-119.067-105h-33.865c-7.407,59.113-57.98,105-119.068,105
	C53.832,444,0,390.168,0,324s53.832-120,120-120h272c66.168,0,120,53.832,120,120S458.168,444,392,444z"/>
<path style="fill:#EE2500;" d="M392,204H256v135h16.933c7.406,59.113,57.979,105,119.067,105c66.168,0,120-53.832,120-120
	S458.168,204,392,204z"/>
<polygon style="fill:#57555C;" points="173,309 138.02,309 138.031,274.13 108.031,274.12 108.02,309 73,309 73,339 108.011,339 
	108,373.995 138,374.005 138.011,339 173,339 "/>
<g>
	<circle style="fill:#FF9800;" cx="392" cy="274" r="15"/>
	<circle style="fill:#FF9800;" cx="442" cy="324" r="15"/>
	<circle style="fill:#FF9800;" cx="342" cy="324" r="15"/>
	<circle style="fill:#FF9800;" cx="392" cy="374" r="15"/>
</g>
<g>
</g>
<g>
</g>
<g>
</g>
<g>
</g>
<g>
</g>
<g>
</g>
<g>
</g>
<g>
</g>
<g>
</g>
<g>
</g>
<g>
</g>
<g>
</g>
<g>
</g>
<g>
</g>
<g>
</g>
</svg>
