<svg id="Capa_1" enable-background="new 0 0 512 512" height="512" viewBox="0 0 512 512" width="512" xmlns="http://www.w3.org/2000/svg"><g><g><path d="m161.314 103.614h20.664v-16.73c0-47.985 37.483-86.884 83.722-86.884 45.525 0 82.536 37.715 83.668 84.676 21.445-15.853 51.397-13.811 70.634 6.152 17.228 17.878 20.602 44.675 10.151 66.063h23.794c32.062 0 58.052 26.973 58.052 60.245 0 33.272-25.991 60.245-58.052 60.245h-292.633c-46.238 0-83.722-38.899-83.722-86.884 0-47.984 37.483-86.883 83.722-86.883z" fill="#edf5ff"/><g><path d="m453.947 156.892h-23.794c10.452-21.388 7.077-48.185-10.151-66.063-19.237-19.964-49.19-22.005-70.635-6.152-1.131-46.962-38.142-84.677-83.667-84.677-.128 0-.256.004-.384.005v277.377h188.632c32.062 0 58.053-26.973 58.053-60.245-.001-33.273-25.992-60.245-58.054-60.245z" fill="#d6e8fd"/></g></g><g><g><path d="m338.652 512h-.176c-21.926 0-42.523-10.724-55.097-28.687l-49.9-71.291c-6.962-9.948-18.368-15.886-30.51-15.886-12.199 0-23.593 5.924-30.558 15.847l-50.109 71.399c-12.578 17.92-33.157 28.618-55.049 28.618-37.083 0-67.253-30.169-67.253-67.252v-90.944c0-63.483 51.647-115.13 115.13-115.13h175.644c63.482 0 115.129 51.647 115.129 115.13v90.944c.001 37.083-30.168 67.252-67.251 67.252z" fill="#17799c"/></g><g><path d="m290.774 238.674h-87.823v157.462h.017c12.142 0 23.547 5.939 30.51 15.886l49.901 71.291c12.574 17.963 33.171 28.687 55.097 28.687h.176c37.083 0 67.252-30.169 67.252-67.252v-90.944c0-63.483-51.647-115.13-115.13-115.13z" fill="#0b495d"/></g></g><g><path d="m188.199 370.336h17.553v59.509h-17.553z" fill="#fed943"/></g><path d="m202.952 370.336h15.258v59.509h-15.258z" fill="#fcbe2c"/><path d="m265.152 124.276v25.38c0 12.942-10.529 23.471-23.471 23.471-14.148 0-27.016 5.537-36.59 14.54l-2.139 2.125c-9.129 9.596-14.753 22.557-14.753 36.816v50.908h14.753 15.258v-50.908c0-12.942 10.529-23.471 23.471-23.471 29.49 0 53.482-23.992 53.482-53.482v-25.38h-30.011z" fill="#55d0f9"/><path d="m319.251 301.409c-24.08 0-43.671 19.59-43.671 43.67s19.591 43.67 43.671 43.67c24.08.001 24.08-87.34 0-87.34z" fill="#badb47"/><g><path d="m71.649 305.061v27.401h-27.401v30.011h27.401v27.401h15.005l4.823-42.407-4.823-42.406z" fill="#fd657d"/></g><path d="m101.66 332.462v-27.401h-15.006v84.813h15.006v-27.401h27.401v-30.011z" fill="#e43b54"/><g><path d="m319.251 301.409v87.34c24.08 0 43.67-19.59 43.67-43.67 0-24.079-19.59-43.67-43.67-43.67z" fill="#92ca32"/></g></g></svg>