<?xml version="1.0" encoding="iso-8859-1"?>
<!-- Generator: Adobe Illustrator 21.0.0, SVG Export Plug-In . SVG Version: 6.00 Build 0)  -->
<svg xmlns="http://www.w3.org/2000/svg" xmlns:xlink="http://www.w3.org/1999/xlink" version="1.1" id="Capa_1" x="0px" y="0px" viewBox="0 0 512 512" style="enable-background:new 0 0 512 512;" xml:space="preserve" width="512" height="512">
<g>
	<path style="fill:#444444;" d="M390.173,143.127h-0.506c-32.944,0-59.746-26.803-59.746-59.747V59.746   c0-16.402-13.345-29.746-29.747-29.746s-29.747,13.344-29.747,29.746v58.093h-30V59.746C240.427,26.802,267.229,0,300.174,0   s59.747,26.802,59.747,59.746V83.38c0,16.402,13.344,29.747,29.746,29.747h0.506c16.402,0,29.747-13.345,29.747-29.747V0h30v83.38   C449.92,116.324,423.117,143.127,390.173,143.127z"/>
	<path style="fill:#292929;" d="M419.92,0v83.38c0,16.402-13.345,29.747-29.747,29.747h-0.506   c-16.402,0-29.746-13.345-29.746-29.747V59.746C359.921,26.802,333.118,0,300.174,0c-17.464,0-33.2,7.533-44.135,19.519v98.32   h14.388V59.746c0-16.402,13.345-29.746,29.747-29.746s29.747,13.344,29.747,29.746V83.38c0,32.944,26.802,59.747,59.746,59.747   h0.506c32.944,0,59.747-26.803,59.747-59.747V0H419.92z"/>
	<rect x="207.237" y="102.839" style="fill:#0082FF;" width="97.525" height="87.001"/>
	<rect x="256.039" y="102.839" style="fill:#00317E;" width="48.724" height="87.001"/>
	<path style="fill:#22B8F9;" d="M357.176,162.405H154.823C69.453,162.405,0,231.859,0,317.228v94.296   C0,466.927,45.073,512,100.476,512s100.476-45.073,100.476-100.476v-11.238h110.096v11.238   c0,55.403,45.074,100.476,100.477,100.476C466.926,512,512,466.927,512,411.524v-94.296   C512,231.859,442.546,162.405,357.176,162.405z"/>
	<path style="fill:#0082FF;" d="M357.177,162.405H256.039v237.881h55.008v11.238c0,55.403,45.074,100.476,100.477,100.476   C466.926,512,512,466.927,512,411.524v-94.296C512,231.859,442.546,162.405,357.177,162.405z"/>
	<path style="fill:#CBE8F8;" d="M124.349,236.54c-32.963,0-59.78,26.817-59.78,59.78s26.817,59.78,59.78,59.78   s59.78-26.817,59.78-59.78S157.312,236.54,124.349,236.54z"/>
	<path style="fill:#FC1D5A;" d="M337.086,270.695c-12.318,0-22.34,10.021-22.34,22.34s10.021,22.34,22.34,22.34   s22.34-10.021,22.34-22.34S349.404,270.695,337.086,270.695z"/>
	<path style="fill:#8CD95B;" d="M424.074,270.695c-12.318,0-22.34,10.021-22.34,22.34s10.021,22.34,22.34,22.34   s22.34-10.021,22.34-22.34S436.393,270.695,424.074,270.695z"/>
	<path style="fill:#FDBF00;" d="M380.58,271.88c12.318,0,22.34-10.021,22.34-22.34s-10.021-22.34-22.34-22.34   s-22.34,10.021-22.34,22.34S368.262,271.88,380.58,271.88z"/>
	<path style="fill:#FE5957;" d="M380.58,314.189c-12.318,0-22.34,10.021-22.34,22.34s10.021,22.34,22.34,22.34   s22.34-10.021,22.34-22.34S392.898,314.189,380.58,314.189z"/>
</g>















</svg>
