<svg height="512pt" viewBox="0 -36 512 512" width="512pt" xmlns="http://www.w3.org/2000/svg"><path d="m241 0h30v115h-30zm0 0" fill="#073e89"/><path d="m256 0h15v115h-15zm0 0" fill="#022e68"/><path d="m377 70c-29.539062 0-58.542969 8.03125-83.875 23.230469l-11.28125 6.769531h-51.6875l-11.28125-6.769531c-25.332031-15.199219-54.335938-23.230469-83.875-23.230469-74.4375 0-135 60.5625-135 135v172.875c0 34.253906 27.871094 62.125 62.125 62.125 25.921875 0 49.351562-16.34375 58.304688-40.671875l34.648437-94.148437-15.917969-25.179688h236.035156l-18.273437 25.179688 34.648437 94.148437c8.953126 24.328125 32.382813 40.671875 58.304688 40.671875 34.253906 0 62.125-27.871094 62.125-62.125v-172.875c0-74.4375-60.5625-135-135-135zm0 0" fill="#0c4ead"/><path d="m377 70c-29.539062 0-58.542969 8.03125-83.875 23.230469l-11.28125 6.769531h-25.84375v180h119.195312l-18.273437 25.179688 34.648437 94.148437c8.953126 24.328125 32.382813 40.671875 58.304688 40.671875 34.253906 0 62.125-27.871094 62.125-62.125v-172.875c0-74.4375-60.5625-135-135-135zm0 0" fill="#073e89"/><path d="m161 320c-24.8125 0-45-20.1875-45-45s20.1875-45 45-45 45 20.1875 45 45-20.1875 45-45 45zm0 0" fill="#0e61c4"/><path d="m351 320c-24.8125 0-45-20.1875-45-45s20.1875-45 45-45 45 20.1875 45 45-20.1875 45-45 45zm0 0" fill="#0c4ead"/><path d="m181 150h-30v-30h-30v30h-30v30h30v30h30v-30h30zm0 0" fill="#cbedfd"/><path d="m421 150c0 11.046875-8.953125 20-20 20s-20-8.953125-20-20 8.953125-20 20-20 20 8.953125 20 20zm0 0" fill="#db2e44"/><path d="m361 180c0 11.046875-8.953125 20-20 20s-20-8.953125-20-20 8.953125-20 20-20 20 8.953125 20 20zm0 0" fill="#fdda40"/></svg>