<?xml version="1.0" encoding="utf-8"?>
<!-- Generator: Adobe Illustrator 25.4.1, SVG Export Plug-In . SVG Version: 6.00 Build 0)  -->
<svg version="1.1" id="Layer_1" xmlns="http://www.w3.org/2000/svg" xmlns:xlink="http://www.w3.org/1999/xlink" x="0px" y="0px"
	 viewBox="0 0 512 480.1" style="enable-background:new 0 0 512 480.1;" xml:space="preserve">
<style type="text/css">
	.st0{fill:#61729B;}
	.st1{fill:#47568C;}
	.st2{fill:#FF637B;}
	.st3{fill:#FFB64C;}
	.st4{fill:#FF9100;}
	.st5{fill:#00C8C8;}
	.st6{fill:#64E1DC;}
	.st7{fill:#E63950;}
</style>
<g>
	<path class="st0" d="M255.9,0h-7.2C117.9,3.6,8,108.9,0.5,239.5c-5.4,87.9,34.9,176.7,106.3,228.1c20.1,14.7,45.3,16.8,67.5,5.1
		c22.8-11.7,36.9-40.8,36.6-67.5c0-24.9,20.1-45,45-45s45,20.1,45,45.6c-0.3,26.1,13.8,55.2,36.6,66.9c22.2,11.4,47.7,9.3,68.1-5.4
		c66-48,106.3-130.8,106.3-212.1C512,112.8,395.5,0,255.9,0z"/>
	<path class="st1" d="M512,255.1c0,81.3-40.3,164.1-106.3,212.1c-20.4,14.7-45.9,16.8-68.1,5.4c-22.8-11.7-36.9-40.8-36.6-66.9
		c0-25.5-20.1-45.6-45-45.6V0C395.5,0,512,112.8,512,255.1z"/>
	<path class="st2" d="M255.9,60c-24.9,0-45,20.1-45,45s20.1,45,45,45s45-20.1,45-45S280.8,60,255.9,60z"/>
	<path class="st3" d="M150.9,210c-24.8,0-45-20.2-45-45s20.2-45,45-45s45,20.2,45,45S175.7,210,150.9,210z"/>
	<path class="st4" d="M361,210c-24.8,0-45-20.2-45-45s20.2-45,45-45s45,20.2,45,45S385.8,210,361,210z"/>
	<path class="st5" d="M376,330.1c-24.8,0-45-20.2-45-45s20.2-45,45-45s45,20.2,45,45S400.8,330.1,376,330.1z"/>
	<path class="st6" d="M135.9,330.1c-24.8,0-45-20.2-45-45s20.2-45,45-45s45,20.2,45,45S160.7,330.1,135.9,330.1z"/>
	<path class="st7" d="M301,105c0,24.9-20.1,45-45,45V60C280.8,60,301,80.1,301,105z"/>
</g>
</svg>
