<svg id="Capa_1" data-name="Capa 1" xmlns="http://www.w3.org/2000/svg" viewBox="0 0 446 399"><path d="M194.2,33.23A152.53,152.53,0,0,0,61,185.22h75.77A93.83,93.83,0,0,0,213,113.94V32A153.39,153.39,0,0,0,194.2,33.23Z"/><path d="M263.8,33A152.53,152.53,0,0,1,397,185H321.23A93.84,93.84,0,0,1,245,113.72V31.78A155.39,155.39,0,0,1,263.8,33Z"/><path d="M194.1,367.05a152.53,152.53,0,0,1-133.2-152h75.77a93.84,93.84,0,0,1,76.23,71.28v81.94A155.39,155.39,0,0,1,194.1,367.05Z"/><path d="M263.7,367.27a152.53,152.53,0,0,0,133.2-152H321.13a93.85,93.85,0,0,0-76.23,71.29V368.5A153.38,153.38,0,0,0,263.7,367.27Z"/></svg>