<?xml version="1.0" encoding="utf-8"?>
<!-- Generator: Adobe Illustrator 25.4.1, SVG Export Plug-In . SVG Version: 6.00 Build 0)  -->
<svg version="1.1" id="Capa_1" xmlns="http://www.w3.org/2000/svg" xmlns:xlink="http://www.w3.org/1999/xlink" x="0px" y="0px"
	 viewBox="0 0 632 399" style="enable-background:new 0 0 632 399;" xml:space="preserve">
<style type="text/css">
	.st0{fill:#FCFDFE;}
	.st1{fill:none;}
	.st2{fill:none;stroke:#000000;stroke-width:20;stroke-linecap:square;stroke-miterlimit:10;}
	.st3{stroke:#000000;stroke-width:8;stroke-miterlimit:10;}
	.st4{fill:#010002;}
	.st5{fill:#FFFFFF;}
	.st6{fill:none;stroke:#000000;stroke-width:8;stroke-linejoin:round;}
	.st7{fill:none;stroke:#000000;stroke-width:8;stroke-linejoin:round;stroke-dasharray:12,12;}
	.st8{fill:none;stroke:#FFFFFF;stroke-width:18;stroke-miterlimit:10;}
	.st9{fill:#EFD8B9;}
	.st10{fill:none;stroke:#EFD8B9;stroke-width:18;stroke-miterlimit:10;}
	.st11{fill:none;stroke:#000000;stroke-width:18;stroke-miterlimit:10;}
	.st12{fill:none;stroke:#000000;stroke-width:22;stroke-miterlimit:10;}
	.st13{fill:none;stroke:#000000;stroke-width:40;stroke-miterlimit:10;}
	.st14{fill:none;stroke:#FFFFFF;stroke-width:22;stroke-miterlimit:10;}
	.st15{fill:none;stroke:#EFD8B9;stroke-width:22;stroke-miterlimit:10;}
	.st16{fill:none;stroke:#000000;stroke-width:15;stroke-miterlimit:10;}
</style>
<path class="st5" d="M32,368l570,2l-67-107c0,0-9.93-17.45-23-16c-9,1-18,21-18,21l-12,21c0,0-5,5-8-4S355,82,355,82s-7-23-28-23
	c-18,0-31,29-31,29l-70,116l-31-45c0,0-10-13-24-11c-17.93,2.56-31,29-31,29L32,368z"/>
</svg>
